<svg width="170" height="51" viewBox="0 0 170 51" fill="none" xmlns="http://www.w3.org/2000/svg">
<path d="M78.76 8.56V12.256H69.64V40H65.56V12.256H56.44V8.56H78.76ZM103.979 8.56V12.256H91.4988V22.192H103.019V25.84H91.4988V36.304H103.979V40H87.4188V8.56H103.979Z" fill="black"/>
<path d="M137.76 8.56V12.256H128.64V40H124.56V12.256H115.44V8.56H137.76ZM155.424 7.984C159.008 7.984 161.648 8.88 163.344 10.672C165.04 12.464 165.888 15.008 165.888 18.304V30.256C165.888 33.552 165.04 36.096 163.344 37.888C161.648 39.68 159.008 40.576 155.424 40.576C151.84 40.576 149.2 39.68 147.504 37.888C145.808 36.096 144.96 33.552 144.96 30.256V18.304C144.96 15.008 145.808 12.464 147.504 10.672C149.2 8.88 151.84 7.984 155.424 7.984ZM155.424 11.584C153.312 11.584 151.712 12.112 150.624 13.168C149.568 14.224 149.04 15.776 149.04 17.824V30.688C149.04 32.736 149.568 34.304 150.624 35.392C151.712 36.448 153.312 36.976 155.424 36.976C157.536 36.976 159.12 36.448 160.176 35.392C161.264 34.304 161.808 32.736 161.808 30.688V17.872C161.808 15.824 161.264 14.272 160.176 13.216C159.12 12.128 157.536 11.584 155.424 11.584Z" fill="#FF8960"/>
<path d="M7.68 8.56V36.4H20.16V40H3.6V8.56H7.68ZM45.3694 8.56V12.256H32.8894V22.192H44.4094V25.84H32.8894V36.304H45.3694V40H28.8094V8.56H45.3694Z" fill="black"/>
</svg>
